<svg width="214" height="214" viewBox="0 0 214 214" fill="none" xmlns="http://www.w3.org/2000/svg">
<g clip-path="url(#clip0_12_7)">
<rect width="214" height="214" fill="#FFEFDB"/>
<rect x="-11" y="47.9395" width="223.093" height="223.093" rx="48" transform="rotate(-9.79135 -11 47.9395)" fill="#005DFF"/>
<rect x="-24.02" y="88.8413" width="234.276" height="223.093" rx="48" transform="rotate(-9.79135 -24.02 88.8413)" fill="#224988"/>
<path d="M13.2616 137.797C21.5403 136.472 27.7828 137.612 31.9892 141.216C35.0859 143.962 37.0135 147.704 37.7719 152.444C38.045 154.15 38.1752 155.976 38.1626 157.923L37.8483 179.654C37.7271 186.997 35.5457 193.212 31.3041 198.298C27.0625 203.384 21.0235 206.554 13.1872 207.808L-14.3978 212.222L-13.2807 142.044L13.2616 137.797ZM9.65596 153.54L3.49435 154.526L2.95295 194.279L11.9584 192.838C14.9286 192.363 17.1088 191.204 18.4991 189.361C19.9425 187.445 20.6869 184.603 20.7323 180.837L20.9936 164.851C21.0239 163.42 20.948 162.136 20.766 160.998C19.8053 154.995 16.102 152.509 9.65596 153.54ZM74.8611 127.259C90.0914 124.822 98.7026 129.828 100.695 142.278C101.029 144.363 101.166 146.642 101.108 149.114L100.824 168.604C100.713 177.631 98.4686 184.666 94.0905 189.709C89.7124 194.752 82.9416 198.007 73.7782 199.473C64.6148 200.94 57.8932 199.844 53.6135 196.186C50.6836 193.674 48.8092 189.858 47.99 184.739C47.626 182.464 47.4793 179.927 47.55 177.129L47.834 157.639C48.094 140.227 57.1031 130.101 74.8611 127.259ZM73.9864 184.371C77.1462 183.865 79.5426 182.639 81.1755 180.692C82.8085 178.746 83.6502 175.5 83.7007 170.955L84.0112 152.239C83.9985 150.945 83.9113 149.792 83.7495 148.781C82.9304 143.662 79.9298 141.517 74.7477 142.346C68.2587 143.514 64.9638 147.833 64.8628 155.303L64.5523 174.019C64.5523 175.64 64.6888 177.303 64.9619 179.009C65.6698 183.433 68.6779 185.22 73.9864 184.371ZM165.691 113.405L164.669 183.568L147.511 186.313L129.59 150.876L129.121 189.256L111.963 192.002L113.08 121.824L130.712 119.002L148.049 152.005L148.628 116.135L165.691 113.405ZM225.646 173.81L178.06 181.425L179.177 111.247L226.764 103.632L226.476 118.844L195.952 123.729L195.82 136.875L221.035 132.84L220.747 148.053L195.532 152.088L195.411 163.482L225.934 158.597L225.646 173.81Z" fill="white"/>
</g>
<defs>
<clipPath id="clip0_12_7">
<rect width="214" height="214" fill="white"/>
</clipPath>
</defs>
</svg>
